0
SECTION
2
HEADER
9
$INSUNITS
70
4
9
$ACADVER
1
AC1014
9
$HANDSEED
5
FFFF
0
ENDSEC
0
SECTION
2
TABLES
0
TABLE
2
VPORT
5
8
100
AcDbSymbolTable
0
ENDTAB
0
TABLE
2
LTYPE
5
5
100
AcDbSymbolTable
0
LTYPE
5
14
100
AcDbSymbolTableRecord
100
AcDbLinetypeTableRecord
2
BYBLOCK
70
0
0
LTYPE
5
15
100
AcDbSymbolTableRecord
100
AcDbLinetypeTableRecord
2
BYLAYER
70
0
0
ENDTAB
0
TABLE
2
LAYER
5
2
100
AcDbSymbolTable
70
2
0
LAYER
5
50
100
AcDbSymbolTableRecord
100
AcDbLayerTableRecord
2
0
70
0
6
CONTINUOUS
0
ENDTAB
0
TABLE
2
STYLE
5
3
100
AcDbSymbolTable
70
1
0
STYLE
5
11
100
AcDbSymbolTableRecord
100
AcDbTextStyleTableRecord
2
STANDARD
70
0
0
ENDTAB
0
TABLE
2
VIEW
5
6
100
AcDbSymbolTable
70
0
0
ENDTAB
0
TABLE
2
UCS
5
7
100
AcDbSymbolTable
70
0
0
ENDTAB
0
TABLE
2
APPID
5
9
100
AcDbSymbolTable
70
2
0
APPID
5
12
100
AcDbSymbolTableRecord
100
AcDbRegAppTableRecord
2
ACAD
70
0
0
ENDTAB
0
TABLE
2
DIMSTYLE
5
A
100
AcDbSymbolTable
70
1
0
ENDTAB
0
TABLE
2
BLOCK_RECORD
5
1
100
AcDbSymbolTable
70
1
0
BLOCK_RECORD
5
1F
100
AcDbSymbolTableRecord
100
AcDbBlockTableRecord
2
*MODEL_SPACE
0
BLOCK_RECORD
5
1B
100
AcDbSymbolTableRecord
100
AcDbBlockTableRecord
2
*PAPER_SPACE
0
ENDTAB
0
ENDSEC
0
SECTION
2
BLOCKS
0
BLOCK
5
20
100
AcDbEntity
100
AcDbBlockBegin
2
*MODEL_SPACE
0
ENDBLK
5
21
100
AcDbEntity
100
AcDbBlockEnd
0
BLOCK
5
1C
100
AcDbEntity
100
AcDbBlockBegin
2
*PAPER_SPACE
0
ENDBLK
5
1D
100
AcDbEntity
100
AcDbBlockEnd
0
ENDSEC
0
SECTION
2
ENTITIES
0
LWPOLYLINE
5
100
100
AcDbEntity
8
0
100
AcDbPolyline
90
4
70
1
43
0.0
10
-57.40000000000002
20
30
10
-57.400000000000006
20
22.874439883852883
42
-0.054509832346954126
10
-52.40000000000002
20
22.852570971337116
10
-52.40000000000002
20
30
42
0.99999999999999989
0
LWPOLYLINE
5
101
100
AcDbEntity
8
0
100
AcDbPolyline
90
4
70
1
43
0.0
10
41.799999999999997
20
-30
10
41.799999999999983
20
-18.83507366590317
42
-0.075559088779353231
10
36.799999999999997
20
-14.062716664997538
10
36.799999999999997
20
-30
42
0.99999999999999989
0
CIRCLE
5
102
100
AcDbEntity
8
0
100
AcDbCircle
10
55
20
0
30
0
40
14.999999999999991
210
0
220
0
230
1
0
LWPOLYLINE
5
103
100
AcDbEntity
8
0
100
AcDbPolyline
90
4
70
1
43
0.0
10
52.5
20
30
10
52.500000000000007
20
22.863726730347341
42
-0.054509307861059203
10
57.5
20
22.863726730347338
10
57.5
20
30
42
0.99999999999999989
0
LWPOLYLINE
5
104
100
AcDbEntity
8
0
100
AcDbPolyline
90
4
70
1
43
0.0
10
-52.40000000000002
20
-30
10
-52.400000000000034
20
-22.852570971337109
42
-0.054509832346954126
10
-57.40000000000002
20
-22.87443988385288
10
-57.40000000000002
20
-30
42
0.99999999999999989
0
LWPOLYLINE
5
105
100
AcDbEntity
8
0
100
AcDbPolyline
90
4
70
1
43
0.0
10
57.5
20
-30
10
57.499999999999993
20
-22.863726730347341
42
-0.054509307861059203
10
52.5
20
-22.863726730347338
10
52.5
20
-30
42
0.99999999999999989
0
LWPOLYLINE
5
106
100
AcDbEntity
8
0
100
AcDbPolyline
90
4
70
1
43
0.0
10
-36.700000000000017
20
-30
10
-36.700000000000031
20
-13.932336487466866
42
-0.076017935697236999
10
-41.700000000000017
20
-18.764594320155179
10
-41.700000000000017
20
-30
42
0.99999999999999989
0
LWPOLYLINE
5
107
100
AcDbEntity
8
0
100
AcDbPolyline
90
4
70
1
43
0.0
10
-41.700000000000017
20
18.764594320155176
42
-0.076017935697237221
10
-36.700000000000017
20
13.932336487466848
10
-36.700000000000017
20
30
42
0.99999999999999989
10
-41.700000000000017
20
30
0
CIRCLE
5
108
100
AcDbEntity
8
0
100
AcDbCircle
10
-55
20
0
30
0
40
14.999999999999991
210
0
220
0
230
1
0
LWPOLYLINE
5
109
100
AcDbEntity
8
0
100
AcDbPolyline
90
4
70
1
43
0.0
10
-26.000000000000014
20
30
10
-26.000000000000014
20
-30
42
0.99999999999999989
10
-21.000000000000014
20
-30
10
-21.000000000000014
20
30
42
0.99999999999999989
0
LWPOLYLINE
5
110
100
AcDbEntity
8
0
100
AcDbPolyline
90
4
70
1
43
0.0
10
5.3999999999999915
20
30
10
5.3999999999999915
20
-30
42
0.99999999999999989
10
10.399999999999991
20
-30
10
10.399999999999991
20
30
42
0.99999999999999989
0
LWPOLYLINE
5
111
100
AcDbEntity
8
0
100
AcDbPolyline
90
4
70
1
43
0.0
10
21.099999999999994
20
30
10
21.099999999999994
20
-30
42
0.99999999999999989
10
26.099999999999994
20
-30
10
26.099999999999994
20
30
42
0.99999999999999989
0
LWPOLYLINE
5
112
100
AcDbEntity
8
0
100
AcDbPolyline
90
4
70
1
43
0.0
10
36.79999999999999
20
14.062716664997545
42
-0.075559088779353467
10
41.799999999999997
20
18.835073665903185
10
41.799999999999997
20
30
42
0.99999999999999989
10
36.799999999999997
20
30
0
LWPOLYLINE
5
113
100
AcDbEntity
8
0
100
AcDbPolyline
90
4
70
1
43
0.0
10
-10.300000000000011
20
30
10
-10.300000000000011
20
-30
42
0.99999999999999989
10
-5.3000000000000114
20
-30
10
-5.3000000000000114
20
30
42
0.99999999999999989
0
LWPOLYLINE
5
114
100
AcDbEntity
8
0
100
AcDbPolyline
90
36
70
1
43
0.0
10
80
20
-15
10
75
20
-15
10
75
20
-45
10
60
20
-45
10
60
20
-50
10
40
20
-50
10
40
20
-45
10
10
20
-45
10
10
20
-50
10
-10
20
-50
10
-10
20
-45
10
-40
20
-45
10
-40
20
-50
10
-60
20
-50
10
-60
20
-45
10
-75
20
-45
10
-75
20
-15
10
-80
20
-15
10
-80
20
15
10
-75
20
15
10
-75
20
45
10
-60
20
45
10
-60
20
50
10
-39.999999999999993
20
50
10
-40
20
45
10
-10
20
45
10
-9.9999999999999964
20
50
10
10
20
50
10
10
20
45
10
40
20
45
10
40
20
50
10
60
20
50
10
60
20
45
10
75
20
45
10
75
20
15
10
80
20
15
0
ENDSEC
0
SECTION
2
OBJECTS
0
DICTIONARY
5
C
100
AcDbDictionary
3
ACAD_GROUP
350
D
3
ACAD_MLINESTYLE
350
17
0
DICTIONARY
5
D
100
AcDbDictionary
0
DICTIONARY
5
1A
330
C
100
AcDbDictionary
0
DICTIONARY
5
17
100
AcDbDictionary
0
ENDSEC
0
EOF
