0
SECTION
2
HEADER
9
$INSUNITS
70
4
9
$ACADVER
1
AC1014
9
$HANDSEED
5
FFFF
0
ENDSEC
0
SECTION
2
TABLES
0
TABLE
2
VPORT
5
8
100
AcDbSymbolTable
0
ENDTAB
0
TABLE
2
LTYPE
5
5
100
AcDbSymbolTable
0
LTYPE
5
14
100
AcDbSymbolTableRecord
100
AcDbLinetypeTableRecord
2
BYBLOCK
70
0
0
LTYPE
5
15
100
AcDbSymbolTableRecord
100
AcDbLinetypeTableRecord
2
BYLAYER
70
0
0
ENDTAB
0
TABLE
2
LAYER
5
2
100
AcDbSymbolTable
70
2
0
LAYER
5
50
100
AcDbSymbolTableRecord
100
AcDbLayerTableRecord
2
0
70
0
6
CONTINUOUS
0
ENDTAB
0
TABLE
2
STYLE
5
3
100
AcDbSymbolTable
70
1
0
STYLE
5
11
100
AcDbSymbolTableRecord
100
AcDbTextStyleTableRecord
2
STANDARD
70
0
0
ENDTAB
0
TABLE
2
VIEW
5
6
100
AcDbSymbolTable
70
0
0
ENDTAB
0
TABLE
2
UCS
5
7
100
AcDbSymbolTable
70
0
0
ENDTAB
0
TABLE
2
APPID
5
9
100
AcDbSymbolTable
70
2
0
APPID
5
12
100
AcDbSymbolTableRecord
100
AcDbRegAppTableRecord
2
ACAD
70
0
0
ENDTAB
0
TABLE
2
DIMSTYLE
5
A
100
AcDbSymbolTable
70
1
0
ENDTAB
0
TABLE
2
BLOCK_RECORD
5
1
100
AcDbSymbolTable
70
1
0
BLOCK_RECORD
5
1F
100
AcDbSymbolTableRecord
100
AcDbBlockTableRecord
2
*MODEL_SPACE
0
BLOCK_RECORD
5
1B
100
AcDbSymbolTableRecord
100
AcDbBlockTableRecord
2
*PAPER_SPACE
0
ENDTAB
0
ENDSEC
0
SECTION
2
BLOCKS
0
BLOCK
5
20
100
AcDbEntity
100
AcDbBlockBegin
2
*MODEL_SPACE
0
ENDBLK
5
21
100
AcDbEntity
100
AcDbBlockEnd
0
BLOCK
5
1C
100
AcDbEntity
100
AcDbBlockBegin
2
*PAPER_SPACE
0
ENDBLK
5
1D
100
AcDbEntity
100
AcDbBlockEnd
0
ENDSEC
0
SECTION
2
ENTITIES
0
CIRCLE
5
100
100
AcDbEntity
8
0
100
AcDbCircle
10
-20
20
-20
30
0
40
2.0000000000000018
210
0
220
-0
230
1
0
CIRCLE
5
101
100
AcDbEntity
8
0
100
AcDbCircle
10
-20
20
20
30
0
40
2.0000000000000018
210
0
220
-0
230
1
0
CIRCLE
5
102
100
AcDbEntity
8
0
100
AcDbCircle
10
20
20
-20
30
0
40
2.0000000000000018
210
0
220
-0
230
1
0
LWPOLYLINE
5
103
100
AcDbEntity
8
0
100
AcDbPolyline
90
6
70
1
43
0.0
10
21.000000000000014
20
13.071796769724495
10
21.000000000000014
20
-13.071796769724493
42
-0.079468260776980618
10
23.111111111111118
20
-13.729355084656687
42
0.55652313788306362
10
26.000000000000014
20
-11.937742251701451
10
26.000000000000014
20
11.937742251701454
42
0.55652313788306296
10
23.111111111111114
20
13.729355084656687
42
-0.079468260776980507
0
LWPOLYLINE
5
104
100
AcDbEntity
8
0
100
AcDbPolyline
90
6
70
1
43
0.0
10
-26.099999999999994
20
11.988133800418277
10
-26.099999999999994
20
-11.988133800418277
42
0.56060415808411823
10
-23.188888888888886
20
-13.768548511436441
42
-0.078963329589488596
10
-21.099999999999994
20
-13.08696882691825
10
-21.099999999999991
20
13.08696882691825
42
-0.078963329589488485
10
-23.188888888888883
20
13.768548511436435
42
0.5606041580841189
0
CIRCLE
5
105
100
AcDbEntity
8
0
100
AcDbCircle
10
20
20
20
30
0
40
2.0000000000000018
210
0
220
-0
230
1
0
LWPOLYLINE
5
106
100
AcDbEntity
8
0
100
AcDbPolyline
90
5
70
1
43
0.0
10
21.000000000000014
20
30
10
21.000000000000014
20
26.928203230275507
42
-0.079468260776980618
10
23.111111111111118
20
26.270644915343311
42
0.55652313788306296
10
26.000000000000014
20
28.062257748298546
10
26.000000000000014
20
30
42
0.99999999999999989
0
LWPOLYLINE
5
107
100
AcDbEntity
8
0
100
AcDbPolyline
90
5
70
1
43
0.0
10
-26.099999999999994
20
30
10
-26.099999999999994
20
28.011866199581725
42
0.56060415808411823
10
-23.188888888888886
20
26.231451488563565
42
-0.078963329589488596
10
-21.099999999999994
20
26.913031173081752
10
-21.099999999999994
20
30
42
0.99999999999999989
0
LWPOLYLINE
5
108
100
AcDbEntity
8
0
100
AcDbPolyline
90
4
70
1
43
0.0
10
41.700000000000017
20
-30
10
41.700000000000017
20
30
42
0.99999999999999989
10
36.700000000000017
20
30
10
36.700000000000017
20
-30
42
0.99999999999999989
0
LWPOLYLINE
5
109
100
AcDbEntity
8
0
100
AcDbPolyline
90
5
70
1
43
0.0
10
23.111111111111121
20
-26.270644915343311
42
-0.079468260776980965
10
21.000000000000011
20
-26.928203230275507
10
21.000000000000014
20
-30
42
0.99999999999999989
10
26.000000000000014
20
-30
10
26.000000000000014
20
-28.062257748298549
42
0.55652313788306418
0
LWPOLYLINE
5
110
100
AcDbEntity
8
0
100
AcDbPolyline
90
4
70
1
43
0.0
10
-5.3999999999999915
20
-30
10
-5.3999999999999915
20
30
42
0.99999999999999989
10
-10.399999999999991
20
30
10
-10.399999999999991
20
-30
42
0.99999999999999989
0
LWPOLYLINE
5
111
100
AcDbEntity
8
0
100
AcDbPolyline
90
4
70
1
43
0.0
10
-36.799999999999997
20
-30
10
-36.799999999999997
20
30
42
0.99999999999999989
10
-41.799999999999997
20
30
10
-41.799999999999997
20
-30
42
0.99999999999999989
0
LWPOLYLINE
5
112
100
AcDbEntity
8
0
100
AcDbPolyline
90
5
70
1
43
0.0
10
-21.099999999999987
20
-26.913031173081755
42
-0.078963329589488485
10
-23.188888888888883
20
-26.231451488563565
42
0.5606041580841189
10
-26.099999999999994
20
-28.011866199581725
10
-26.099999999999994
20
-30
42
0.99999999999999989
10
-21.099999999999994
20
-30
0
LWPOLYLINE
5
113
100
AcDbEntity
8
0
100
AcDbPolyline
90
4
70
1
43
0.0
10
57.40000000000002
20
-30
10
57.40000000000002
20
30
42
0.99999999999999989
10
52.40000000000002
20
30
10
52.40000000000002
20
-30
42
0.99999999999999989
0
LWPOLYLINE
5
114
100
AcDbEntity
8
0
100
AcDbPolyline
90
4
70
1
43
0.0
10
-57.5
20
30
42
-0.99999999999999989
10
-52.5
20
30
10
-52.5
20
-30
42
-0.99999999999999989
10
-57.5
20
-30
0
LWPOLYLINE
5
115
100
AcDbEntity
8
0
100
AcDbPolyline
90
4
70
1
43
0.0
10
10.300000000000011
20
-30
10
10.300000000000011
20
30
42
0.99999999999999989
10
5.3000000000000114
20
30
10
5.3000000000000114
20
-30
42
0.99999999999999989
0
LWPOLYLINE
5
116
100
AcDbEntity
8
0
100
AcDbPolyline
90
36
70
1
43
0.0
10
-75
20
-15
10
-80
20
-15
10
-80
20
15
10
-75
20
15
10
-75
20
45
10
-60
20
45
10
-60
20
50
10
-40
20
50
10
-40
20
45
10
-10
20
45
10
-10
20
50
10
9.9999999999999964
20
50
10
10
20
45
10
40
20
45
10
39.999999999999993
20
50
10
60
20
50
10
60
20
45
10
75
20
45
10
75
20
15
10
80
20
15
10
80
20
-15
10
75
20
-15
10
75
20
-45
10
60
20
-45
10
60
20
-50
10
40
20
-50
10
40
20
-45
10
10
20
-45
10
10
20
-50
10
-10
20
-50
10
-10
20
-45
10
-40
20
-45
10
-40
20
-50
10
-60
20
-50
10
-60
20
-45
10
-75
20
-45
0
ENDSEC
0
SECTION
2
OBJECTS
0
DICTIONARY
5
C
100
AcDbDictionary
3
ACAD_GROUP
350
D
3
ACAD_MLINESTYLE
350
17
0
DICTIONARY
5
D
100
AcDbDictionary
0
DICTIONARY
5
1A
330
C
100
AcDbDictionary
0
DICTIONARY
5
17
100
AcDbDictionary
0
ENDSEC
0
EOF
